<svg viewBox="0 0 64 57" fill="none" xmlns="http://www.w3.org/2000/svg"><path d="M56.889 1.781a5.34 5.34 0 0 1 5.333 5.344v32.063a5.34 5.34 0 0 1-5.333 5.343H7.11a5.34 5.34 0 0 1-5.333-5.343V7.124A5.34 5.34 0 0 1 7.11 1.781H56.89ZM7.11 46.313h17.622l-1.477 8.906H15.11c-.489 0-.889.4-.889.89s.4.891.89.891h33.777c.489 0 .889-.4.889-.89s-.4-.891-.89-.891h-8.132l-1.478-8.907h17.61c3.923 0 7.112-3.195 7.112-7.124V7.124C64 3.195 60.811 0 56.889 0H7.11C3.19 0 0 3.195 0 7.125v32.063c0 3.93 3.189 7.124 7.111 7.124Zm17.933 8.906 1.478-8.907h10.934l1.477 8.907H25.044ZM8.89 8.906H55.11v21.375H8.89V8.906Zm-1.778 0v21.375c0 .98.8 1.782 1.778 1.782H55.11c.978 0 1.778-.802 1.778-1.782V8.906c0-.98-.8-1.781-1.778-1.781H8.89c-.978 0-1.778.802-1.778 1.781Z" fill="currentColor"/></svg>