<svg width="327" height="61" viewBox="0 0 327 61" fill="none" xmlns="http://www.w3.org/2000/svg"><path fill-rule="evenodd" clip-rule="evenodd" d="M290.25 20.872c-.821 1.053-.806 1.445.092 2.499 1.906 2.236 5.389-.167 3.589-2.476-.923-1.184-2.768-1.195-3.681-.023Zm-183.526 9.083.082 8.969h3.399l.176-3.9c.096-2.144.339-4.203.538-4.576.437-.814 2.251-1.48 3.222-1.18 1.651.508 1.782.883 1.782 5.119 0 2.652.121 4.067.371 4.319.204.206 1.038.374 1.854.374h1.483v-4.966c0-5.388-.177-6.106-1.815-7.353-1.106-.842-4.549-1.048-5.926-.354-.543.273-1.109.42-1.259.327-.149-.093-.271-1.424-.271-2.958v-2.79h-3.718l.082 8.97Zm123.311-.015.082 8.984 1.583.093c1.363.08 1.605.006 1.743-.53.161-.618.168-.618 1.342-.014 2.223 1.144 5.347.667 7.113-1.087 2.82-2.802 2.534-7.74-.595-10.28-1.002-.812-1.492-.972-3.301-1.075-1.529-.087-2.402.02-3.12.38-.548.277-1.04.503-1.092.503-.053 0-.136-1.3-.184-2.886l-.089-2.886-1.782-.093-1.782-.094.082 8.985Zm25.785-8.745c-.114.114-.206 1.447-.206 2.963s-.054 2.756-.12 2.756c-.065 0-.517-.21-1.004-.466-.902-.476-3.329-.616-4.956-.288-1.176.237-2.64 1.547-3.463 3.096-.672 1.266-.854 3.441-.456 5.45.251 1.27 2.399 3.55 3.786 4.019 1.592.538 3.772.43 5.099-.252 1.174-.604 1.181-.604 1.341.015.139.535.381.609 1.744.529l1.583-.093.082-8.969.082-8.969h-1.653c-.909 0-1.746.094-1.859.209Zm-174.614.935c-.113.114-.206 3.89-.206 8.39 0 7.172.06 8.205.489 8.37.269.105 3.033.19 6.143.19 6.261 0 6.47-.064 6.292-1.93l-.098-1.034-4.482-.156-4.48-.156-.093-1.784-.093-1.784 3.801-.087 3.801-.088.094-1.638.093-1.638H84.71v-3.431H93.362v-3.432h-5.975c-3.286 0-6.068.094-6.18.208Zm106.588.076c-.169.277-.06.789.439 2.056.136.343.904 2.73 1.708 5.303.804 2.574 1.644 5.171 1.867 5.771.223.601.485 1.469.583 1.928.289 1.365.976 1.816 2.763 1.816 1.759 0 2.358-.368 2.358-1.448 0-.384.127-.778.282-.875.155-.097.376-.736.491-1.42.114-.685.319-1.315.455-1.4.136-.084.345-.681.464-1.327.12-.645.32-1.313.445-1.485.125-.172.401-.926.614-1.676.554-1.954.53-1.998 2.838 5.195 1.463 4.56 1.466 4.563 4.003 4.379 1.61-.118 1.816-.456 3.386-5.558.555-1.802 1.2-3.718 1.433-4.259.233-.54.424-1.149.424-1.351 0-.203.359-1.419.798-2.703.439-1.283.721-2.535.628-2.782-.116-.304-.653-.448-1.674-.448-1.254 0-1.557.116-1.832.702-.486 1.033-3.174 9.53-3.174 10.032 0 .237-.18.5-.4.585-.273.105-.586-.505-.981-1.916-.32-1.14-.685-2.282-.812-2.54-.127-.257-.677-1.906-1.222-3.665l-.99-3.198h-1.647c-1.923 0-1.88-.061-3.544 5.148-.547 1.715-1.186 3.58-1.417 4.144-.232.563-.422 1.23-.422 1.482a.462.462 0 0 1-.464.457c-.255 0-.463-.229-.463-.508 0-.28-.335-1.578-.745-2.886a390.022 390.022 0 0 1-1.437-4.717c-.381-1.287-.828-2.515-.994-2.73-.346-.45-3.496-.539-3.761-.106ZM96.762 32.53v6.551h1.365c2.377 0 2.343.057 2.343-3.963 0-4.27.391-5.281 2.152-5.574 1.847-.308 1.866-.328 1.866-2.036v-1.61l-1.429.162c-.786.09-1.516.294-1.623.453-.106.16-.437.382-.734.493-.4.149-.541.04-.541-.413 0-.537-.215-.614-1.7-.614h-1.7v6.55Zm24.415-6.222c0 .18.285.988.635 1.794.349.805.781 1.815.959 2.244l.718 1.716 1.358 3.238c.531 1.266.965 2.434.965 2.596 0 1.218 3.462 1.698 4.434.614.281-.313.511-.678.511-.81s.197-.683.439-1.224c.241-.54 1.086-2.597 1.877-4.57.791-1.973 1.637-3.96 1.88-4.416.736-1.384.589-1.55-1.281-1.449-1.472.08-1.781.207-2.132.874-.733 1.39-2.328 5.371-2.328 5.811 0 .235-.139.428-.309.428-.17 0-.309.21-.309.468 0 .77-.607.529-.977-.39-.866-2.147-1.122-2.845-1.663-4.524-.318-.986-.689-1.793-.824-1.793-.134 0-.245-.211-.245-.468 0-.364-.412-.468-1.854-.468-1.094 0-1.854.134-1.854.329Zm18.161.228c-2.236 1.099-3.636 3.433-3.636 6.062 0 1.178.533 2.98 1.061 3.587l.678.78c1.314 1.51 3.558 2.255 6.215 2.061 1.643-.12 4.729-1.278 4.708-1.767-.005-.113-.438-.682-.963-1.265-.939-1.043-.968-1.052-1.816-.546-1.33.793-4.024.687-5.045-.199-.451-.391-.82-.96-.82-1.262 0-.502.391-.546 4.553-.504 5.407.055 5.406.056 4.619-2.803-.517-1.878-1.797-3.765-2.553-3.765-.213 0-.445-.175-.515-.39-.224-.676-5.104-.668-6.486.01Zm12.332-.35c-.258.26-.275 11.728-.019 12.402.131.344.59.493 1.52.493 2.349 0 2.309.072 2.32-4.167.012-4.436.304-5.066 2.523-5.446l1.33-.228.095-1.673.095-1.673-1.447.164c-.795.09-1.533.296-1.64.455-.106.16-.437.382-.734.493-.4.149-.541.04-.541-.413 0-.534-.215-.614-1.648-.614-.907 0-1.741.093-1.854.208Zm8.911.495c.108.386.381 1.123.606 1.637.226.515.556 1.287.735 1.716.178.43.618 1.482.976 2.34.359.858.797 1.91.973 2.34.176.428.516 1.177.756 1.663.239.485.435 1.06.435 1.277 0 .808 1.119 1.427 2.577 1.427 1.722 0 2.187-.438 3.027-2.85.32-.92.79-2.116 1.043-2.656.254-.541.461-1.063.461-1.162 0-.098.359-.989.799-1.98 1.387-3.13 1.673-3.843 1.673-4.168 0-.189-.71-.28-1.75-.224l-1.751.094-.903 2.34a87.547 87.547 0 0 1-1.767 4.21l-.863 1.873-.376-.936c-.207-.515-.554-1.357-.771-1.872a117.75 117.75 0 0 1-.939-2.34c-1.414-3.647-1.208-3.431-3.277-3.431-1.782 0-1.852.03-1.664.702Zm17.384-.487c-.298.078-.541.273-.541.431 0 .16-.187.29-.416.29-.596 0-1.304.915-1.72 2.222-.392 1.235-.068 2.445.925 3.448.592.598 3.387 1.505 4.641 1.505 1.306 0 1.824.312 1.824 1.1 0 .546-.223.771-.912.924-1.124.25-3.602-.092-4.682-.645-.898-.46-1.514-.117-1.514.84 0 .295-.174.6-.387.678-.787.29.279 1.285 1.802 1.684 1.872.49 5.213.488 6.487-.004 1.828-.705 2.635-1.548 2.82-2.945.097-.729.011-1.706-.193-2.204-.418-1.017-2.535-2.236-3.883-2.236-2.376 0-3.713-.959-2.975-2.134.27-.43 3.286-.373 4.985.093.679.187.842.066 1.307-.97.579-1.289.46-1.497-1.156-2.027-.699-.23-5.587-.268-6.412-.05Zm39.508.415c-2.245 1.25-3.272 3.1-3.272 5.9 0 4.065 2.711 6.572 7.108 6.572 1.914 0 3.552-.44 4.404-1.184.727-.634.682-1.048-.225-2.114-.758-.89-.775-.894-1.67-.36-.559.332-1.547.538-2.584.538-1.518 0-1.772-.102-2.64-1.065-1.264-1.401-1.054-1.469 4.399-1.417l4.343.041-.046-1.624c-.058-2.102-.86-3.724-2.389-4.834-1.055-.765-1.574-.905-3.722-1.007-2.116-.1-2.681-.015-3.706.555Zm48.461-.365c-1.007.313-2.899 1.717-2.901 2.152-.001.215-.125.39-.276.39-.347 0-1.271 2.823-1.271 3.885 0 .442.118 1.047.263 1.345.145.298.523 1.084.841 1.748 1.036 2.166 3.227 3.317 6.313 3.317 1.877 0 3.432-.418 4.549-1.222.881-.634.871-.778-.119-1.9-.935-1.06-1.194-1.125-1.847-.465-.309.311-1.082.467-2.32.467-1.656 0-1.957-.102-2.797-.95-.517-.522-.843-1.048-.724-1.17.119-.12 2.326-.29 4.905-.375l4.688-.156-.085-1.404c-.15-2.442-1.447-4.396-3.606-5.43-1.048-.502-4.313-.637-5.613-.232Zm13.652-.058c-1.069.309-2.603 2.079-2.795 3.224-.408 2.436 1.408 4.127 4.88 4.547 2.721.33 3.559 1.752 1.286 2.182-1.141.217-4.045-.313-4.692-.855-.507-.425-.658-.283-1.344 1.262-.53 1.195-.528 1.22.125 1.549 2.909 1.458 7.995 1.214 9.842-.473 1.342-1.226 1.211-4.428-.215-5.218-.34-.188-.687-.428-.772-.533-.085-.105-.989-.339-2.009-.52-3.281-.583-4.17-1.194-3.183-2.19.449-.454 4.148-.506 4.419-.063.415.678 1.278.277 1.771-.821.789-1.759.275-2.072-3.578-2.177-1.726-.048-3.406-.01-3.735.086Zm10.712 6.266.084 6.473 1.047.101c.576.056 1.375.018 1.777-.084l.73-.185V25.977h-3.721l.083 6.474Zm9.427-5.848c-2.279 1.233-3.317 2.94-3.317 5.458 0 2.751 1.468 4.887 4.028 5.862 1.844.702 3.293.673 4.706-.09.635-.344 1.224-.625 1.309-.625.458 0 .053 1.645-.59 2.4-.701.822-.889.874-3.075.844-1.599-.021-2.572-.193-3.106-.546-1.071-.708-1.195-.669-1.872.601-.774 1.452-.458 1.946 1.708 2.672 3.822 1.279 7.704.47 9.69-2.021l.955-1.199.094-6.99.093-6.991h-1.716c-1.532 0-1.716.07-1.716.65v.648l-1.041-.649c-1.424-.888-4.531-.9-6.15-.024Zm14.196-.417c-.39.393-.236 12.115.165 12.52.57.575 3.23.483 3.459-.12.103-.27.188-1.935.188-3.697 0-4.021.316-5.019 1.741-5.493 1.305-.435 2.361-.204 3.195.7.562.608.627 1.092.627 4.642 0 4.313.012 4.342 1.854 4.342 1.867 0 1.855.032 1.849-4.947-.004-4.151-.068-4.679-.695-5.783-1.032-1.817-2.379-2.43-5.067-2.308-1.559.071-2.389.261-2.806.642-.769.703-1.007.683-1.007-.082 0-.546-.206-.624-1.648-.624-.907 0-1.742.093-1.855.208Zm-169.539 3c.466.36 1.21 1.54 1.21 1.919 0 .096-1.322.176-2.936.176-2.693 0-2.936-.05-2.936-.601 0-1.47 3.321-2.535 4.662-1.495Zm78.553.392c1.544 1.445 1.204 1.703-2.244 1.703-1.7 0-3.091-.13-3.091-.288 0-.158.428-.72.951-1.248 1.263-1.275 3.124-1.346 4.384-.167Zm15.316-.259c.507.294 1.161 1.082 1.454 1.752.463 1.059.479 1.377.128 2.452-1.109 3.393-5.387 3.232-6.03-.228-.279-1.498.418-3.235 1.572-3.918 1.188-.702 1.744-.714 2.876-.058Zm15.281-.144c1.375.776 1.749 1.265 1.936 2.532.204 1.376-.167 2.742-.963 3.545-.633.639-3.218.86-3.84.328-2.104-1.796-1.973-4.864.266-6.236 1.02-.625 1.713-.67 2.601-.169Zm17.275.602c.482.546.877 1.107.877 1.248 0 .14-1.4.256-3.111.256-3.063 0-3.108-.01-2.896-.684.357-1.136 1.406-1.79 2.889-1.801 1.149-.01 1.502.146 2.241.981Zm34.188-.453c1.555.997 2.099 2.482 1.469 4.005-.538 1.3-1.287 1.696-3.214 1.696-1.303 0-1.644-.13-2.19-.83-1.352-1.735-1.066-3.639.713-4.751 1.229-.768 2.159-.803 3.222-.12ZM118.704 47.347c0 1.317-.107 1.716-.463 1.716-.255 0-.464-.134-.464-.298 0-.164-.473-.388-1.052-.497-2.324-.44-4.498 1.754-4.062 4.1.108.584.33 1.062.492 1.062.162 0 .297.176.298.39.003.512 1.435 1.17 2.547 1.17 1.234 0 2.518-.742 2.953-1.707.456-1.009.508-7.652.06-7.652-.17 0-.309.772-.309 1.716Zm9.581 2.64c0 3.988.05 4.384.597 4.68.756.408 1.257.413 1.257.011 0-.172-.192-.312-.427-.312-.638 0-.8-1.02-.805-5.07-.003-2.232-.125-3.665-.313-3.665-.192 0-.309 1.66-.309 4.357Zm15.642-3.587c-.274.423-.499 1.055-.499 1.404 0 .427-.202.635-.618.635-.34 0-.618.135-.618.3 0 .166.278.452.618.636.543.293.618.653.618 2.974 0 1.553.128 2.64.309 2.64.183 0 .309-1.136.309-2.786v-2.787l.826-.099c1.204-.143 1.31-.878.127-.878-.567 0-.953-.161-.953-.399 0-.625.915-1.785 1.409-1.785.245 0 .446-.14.446-.312 0-.644-1.482-.3-1.974.457Zm8.33 1.398c-1.175.782-1.696 1.762-1.71 3.219-.028 3.005 2.725 4.82 5.286 3.483.866-.452.969-.448 1.328.048.698.963 1.102.191 1.102-2.103 0-2.555-.542-3.954-1.83-4.722-1.183-.705-3.054-.672-4.176.075Zm8.053-.129c-.36.947-.196 4.119.271 5.248.716 1.728 2.94 2.593 4.501 1.75.406-.22.786-.221 1.184-.007 1.047.566 1.297-.252 1.202-3.927-.082-3.148-.132-3.386-.706-3.386-.561 0-.633.26-.773 2.8-.143 2.595-.211 2.829-.927 3.206-.882.462-2.303.293-2.941-.351-.284-.287-.464-1.33-.523-3.042-.073-2.11-.186-2.625-.592-2.703-.276-.053-.589.132-.696.412Zm9.388.146c0 .343.117.624.26.624.143 0 .522.491.843 1.092.32.6.69 1.092.821 1.092.315 0 .309.853-.006.988-.592.251-1.971 2.478-1.805 2.915.151.398.286.412.807.084.344-.217.625-.507.625-.645 0-.137.348-.629.773-1.092l.773-.841 1.376 1.556c1.07 1.21 1.458 1.473 1.747 1.181.288-.291.174-.637-.514-1.558-.487-.652-1.092-1.343-1.344-1.537-.404-.31-.399-.444.044-1.126.276-.426.713-.987.971-1.248.259-.26.561-.842.673-1.291.32-1.285-.486-1.016-1.719.574-.594.766-1.161 1.397-1.26 1.404-.099.006-.629-.62-1.178-1.392-1.053-1.48-1.887-1.825-1.887-.78Zm9.508.286c-.943.851-1.01 1.043-1.01 2.934 0 1.807.091 2.108.851 2.82 3.004 2.809 7.396.059 6.384-3.998-.658-2.637-4.155-3.623-6.225-1.756Zm-82.753.24c-.255.103-.847.614-1.314 1.135-2.516 2.804.806 6.907 4.095 5.057.726-.408.737-.448.173-.669-.372-.145-.645-.095-.721.134-.364 1.1-3.47-.265-3.47-1.526 0-.548.24-.602 2.666-.602h2.665l-.2-1.014c-.353-1.784-2.414-3.115-3.894-2.515Zm6.936.228c-.423.312-.713.347-.986.118-.307-.257-.388.373-.388 3.008 0 2.142.111 3.263.309 3.139.17-.106.31-1.167.31-2.358 0-2.472.583-3.413 2.115-3.413 1.392 0 2.011.969 2.153 3.371.174 2.946.677 3.213.672.357-.006-3.077-.178-3.597-1.386-4.175-1.264-.606-2.025-.619-2.799-.047Zm19.656-.214c-1.371.544-2.329 2.448-2.033 4.04.386 2.079 3.33 3.344 4.932 2.12.752-.574.357-1.036-.451-.527-1.335.842-3.189.121-3.437-1.338-.098-.571.088-.631 2.202-.717 1.27-.05 2.4-.241 2.511-.423.371-.605-.404-2.352-1.274-2.87-.872-.52-1.635-.609-2.45-.285Zm13.43.246c-2.468 1.312-2.7 4.221-.478 5.989.623.496 2.542.503 3.606.014.669-.308.866-.308.968.002.071.213.256.308.411.211.403-.251.351-3.792-.068-4.605-.916-1.778-2.822-2.47-4.439-1.61Zm19.593.5c.873.82 1.107 1.966.636 3.114-.754 1.838-3.416 1.992-4.433.255-1.596-2.727 1.53-5.502 3.797-3.37Zm27.46.052c.507.469.692.985.685 1.914-.013 1.668-.593 2.379-2.109 2.584-1.07.145-1.348.05-2.033-.696-.921-1.003-1.043-2.457-.296-3.533.968-1.395 2.421-1.5 3.753-.27Zm-84.603.534c1.165 1.176.821 1.56-1.4 1.56-2.25 0-2.742-.419-1.798-1.531.723-.853 2.367-.868 3.198-.03Zm18.991.419c1.013 1.34.994 2.044-.089 3.268-1.102 1.245-2.338 1.315-3.53.2-1.75-1.638-.635-4.511 1.751-4.511.861 0 1.239.21 1.868 1.043Zm7.873-.14c.558.791.577.927.151 1.092-.749.29-3.778.223-3.968-.087-.093-.151.118-.643.467-1.092.916-1.174 2.489-1.134 3.35.087Zm13.908-.081c.918 1.177.842 2.762-.177 3.716-.999.935-2.042.973-3.23.12-.741-.534-.897-.868-.897-1.93 0-1.725.921-2.728 2.504-2.728.885 0 1.311.195 1.8.822Zm-58.388 1.673c-.313.205.77.304 3.34.308 2.46.003 3.737-.106 3.614-.308-.246-.401-6.338-.401-6.954 0Z" fill="#F5F3F3"/><path fill-rule="evenodd" clip-rule="evenodd" d="M24.537.672c-1.6.362-3.482.86-4.183 1.106-2.12.745-6.183 2.732-6.183 3.025 0 .15-.176.274-.391.274-.588 0-4.32 3.01-5.974 4.817-1.757 1.921-4.183 5.439-4.183 6.066 0 .25-.128.454-.286.454-.308 0-2.32 6.032-2.96 8.874-.505 2.249-.503 7.811.005 10.047 1.375 6.057 2.034 7.738 4.552 11.616 7.94 12.23 21.236 16.867 35.425 12.357 4.176-1.327 9.62-4.856 11.916-7.726a80.569 80.569 0 0 1 2.1-2.528c1.253-1.403 4.17-7.53 4.17-8.76 0-.381.14-.85.313-1.041.408-.454 1.143-5.995 1.142-8.614 0-1.127-.11-3.098-.243-4.381l-.242-2.332-.437 2.187a92.56 92.56 0 0 0-.688 3.916c-.138.95-.405 1.824-.594 1.941-.188.117-.342.584-.342 1.037 0 1.158-4.221 9.366-4.82 9.37-.15.002-.272.214-.272.472 0 1.242-8.645 9.04-10.022 9.04-.29 0-.526.145-.526.322 0 .178-.286.416-.637.53-.35.112-1.858.625-3.351 1.139-3.862 1.328-9.694 1.344-13.28.036-3.262-1.19-4.714-2.24-5.623-4.07-1.28-2.58-.741-7.135 1.055-8.904 1.677-1.651 7.227-4.78 8.48-4.78.264 0 .636-.14.826-.313.19-.172 1.573-.692 3.073-1.154 4.888-1.508 9.26-2.928 10.002-3.25.4-.173 1.464-.618 2.364-.989 5.773-2.378 9.551-5.912 10.785-10.091.478-1.618.498-2.248.126-3.944-.245-1.11-.712-2.512-1.04-3.115-.979-1.803-3.751-5.432-4.749-6.217a27.65 27.65 0 0 1-1.512-1.28c-.808-.763-1.856-1.445-2.61-1.7-.35-.118-.636-.347-.636-.509 0-.161-.49-.402-1.091-.535-.6-.132-1.093-.351-1.094-.486-.002-.135-.943-.536-2.092-.892C34.864-.155 29.628-.48 24.537.672Zm17.655 11.64c-1.674-1.912-5.523-4.576-8.016-5.548-1.847-.72-7.803-1.096-9.82-.62-1.867.44-3.59 1.264-5.715 2.734-2.043 1.414-4.47 3.708-4.47 4.226a.523.523 0 0 1-.273.445c-.794.356-4.091 6.483-4.091 7.605 0 .33-.151.756-.336.947-1.776 1.838-1.932 21.075-.165 20.394.25-.097.567-.683.702-1.302.265-1.214 4.906-6.127 5.788-6.127.273 0 .551-.147.618-.327.147-.395 6.315-3.345 8.85-4.234 1-.35 2.146-.774 2.547-.941.4-.168 1.955-.72 3.455-1.226 5.768-1.949 7.971-2.786 9.534-3.62 1.694-.906 3.196-2.217 3.196-2.788 0-.184.188-.398.419-.475.23-.077.493-1.048.585-2.158.203-2.458-.607-4.47-2.808-6.986Z" fill="#E82F19"/><path d="M15.385 23.636c1.392-6.676 5.744-11.584 11.165-12.594.22-.04 1.195-.054 2.165-.03 1.468.038 2 .125 3.166.515 1.885.633 3.452 1.568 4.932 2.943 2.963 2.752 2.916 4.79-.146 6.3-.391.192-3.046 1.113-5.899 2.046-8.832 2.886-11.917 4.267-14.687 6.57-.767.638-.94.724-1.026.507-.167-.422.077-5.044.33-6.257Z" fill="#F5F3F3" fill-opacity=".1"/><path fill-rule="evenodd" clip-rule="evenodd" d="M49.456 33.517c-.204.28-.73.78-1.169 1.11-2.298 1.725-5.633 3.101-13.004 5.366-4.704 1.446-7.246 2.696-7.89 3.88-.65 1.193-.476 2.806.386 3.597 1.153 1.056 4.283 1.739 6.755 1.472 3.534-.38 6.653-2.204 9.72-5.683 2.898-3.287 4.712-6.038 5.347-8.113.326-1.066.498-2.153.34-2.146-.062.003-.28.235-.485.517Z" fill="#F5F3F3" fill-opacity=".1"/></svg>