<svg xmlns="http://www.w3.org/2000/svg" width="541" height="95" fill="none" viewBox="0 0 541 95"><path fill="#A06E83" d="M.23 52.67c.11-2.01.34-7.56.34-7.94.57-5.84 2.75-21.24 3.1-22.1l.92-2.39c4.59.48 9.06-.86 13.76-.76a26.923 26.923 0 0 1-1.49 7.94c-.46 2.96-1.83 16.46-1.95 19.33-.11.38-.34 4.98-.46 6.7 0 .96-.11 5.74-.11 6.6 0 2.3 1.38 5.36 4.24 5.36.23.1.69.1.8.1 8.49 1.62 8.83-15.98 9.06-24.11.23-5.55-1.03-11-.8-16.55.11-2.1 2.18-3.25 4.13-3.73 4.59.1 8.83-.57 13.07-.48.69 0 1.72-.09 2.06.58.12 3.25.12 18.18.12 21.33v1.72c-.69 16.55-3.1 36.93-26.14 36.26C5.5 80.13 1.03 73.44 0 60.62c0-1.24.23-6.79.23-7.94"/><path fill="#C99582" d="M79.11 66.75h.23c.57 0 2.75-.46 3.21-.46.57-4.13.57-5.96.57-9.63 0-.68-.12-3.21-.12-3.9-2.06-.69-4.24-.92-6.42-.92-4.01 0-8.48 1.6-8.48 7.22 0 6.31 6.88 7.68 11.01 7.68m-6.54-29.57c2.29 0 3.9-.11 5.96.46.46 0 3.32 1.26 3.78 1.38h.46c1.03 0 1.03-.92 1.03-1.84v-.11c0-4.58-.46-8.94-.46-13.3v-5.85c0-1.49.11-4.01 2.06-4.01s4.36 1.6 6.54 1.84c1.6.23 4.01-.12 5.5.8 2.29 1.38 2.87 12.5 2.87 15.36v2.98c0 .8-.69 7.23-.8 8.03v.57c-.11 3.55-.57 20.52-.69 24.19-.57 3.1-.92 5.96-2.06 8.83C91.48 81.08 86.1 82 79.67 82c-4.01 0-8.49.35-12.5-1.03-8.94-3.09-14.45-12.5-14.45-22.82 0-12.5 8.37-20.99 19.84-20.99"/><path fill="#608A87" d="M124.04 45.32c-.46 1.05-1.14 3.58-1.14 3.58l.19.78c2.79-.67 5.35-1.76 8.14-2.43.11-.03.89-.21.89-.21.33-.08 2.45-.11 2.78-.19.22-.05 1.29-.55 1.34-.79-.03-.11-.08-.33-.08-.33-.72-3.01-5.05-4.33-7.72-3.69-2.01.48-3.93 1.3-4.4 3.3m-14.47 15.83c-3.54-14.72 2.95-29.95 19.33-33.89 8.81-2.12 13.75 1.77 19.46 7.36 1.24 1.24 2.34 2.85 2.77 4.64.51 2.12.82 4.87.02 6.95-.08.14-.26.42-.34.56-.06.09-.12.18-.17.27-1.3 2.44-2.72 4.9-5.15 6.54-1.04.6-6.57 4.06-7.81 4.83-2.37.92-3.38 1.16-5.27 1.62-2.01.48-4.32.69-6.43 1.19l-.56.13c2.49 3.53 5.63 4.78 9.39 6.71 3.32 1.56 7.4 3.3 11.32 2.47.89-.21 5.6-1.23 6.83-1.52 1.69 7.02-1.02 10.97-8.05 12.66-14.6 3.51-28.35-4.16-34.33-16.75-.14-.56-.86-3.1-1.02-3.77"/><path fill="#96BDD4" d="M171.4 92.21s-1.03-22.24-1.72-40.36h-6.19l-2.06-1.15-.46-1.38-1.61-1.84-.46-1.83v-4.13l.23-1.6 10.2.34c-.12-3.21-.12-6.08-.12-8.03 0-5.62.69-10.44 2.98-15.71.57-.34 2.87-3.44 3.32-4.01C180.56 8.38 186.4 7 192.82 7c3.9 0 7.45.8 7.45 5.28 0 .69-1.15 9.29-2.87 9.29h-10.2c-2.41 0-4.7 3.44-4.7 5.16 0 4.36.8 7.91 1.61 12.15 1.15 1.95 4.01 1.61 5.96 1.61 2.29 0 4.36-.92 6.65-.92.46 0 1.03.12 1.03.57 0 2.76-1.61 8.26-1.72 11.35-.11 0-.69.34-.91.34-.57 0-3.44.35-4.13.35-.91.12-4.47-.23-5.16-.23 0 4.59 2.18 31.07 2.18 35.43-.8 9.17-15.82 7.68-16.62 4.82"/><path fill="#A06E83" d="M202.81 71.8c-.12-.92-.69-8.6-.8-9.52-.12-.8-.69-4.24-.8-4.93V39.46c.8-2.18 1.49-7.68 4.13-8.26.35 0 4.36-.57 5.85-.8h.11c1.03 0 3.55.11 2.75 2.06-.11 1.03-.34 5.96-.46 6.99v1.72c4.59-5.73 12.73-9.98 20.07-9.98 5.27 0 5.27 5.62 5.27 9.86v.69c0 .57-.12 3.44-.12 4.02-1.15.69-6.88 2.75-8.26 2.4l-4.93 2.06c-1.15 1.38-2.64 1.95-3.79 3.33-1.38 1.83-2.29 5.73-2.41 7.91-.12 1.61-.46 9.4-.46 11.12.92 3.09 1.26 4.35 1.26 6.76 0 2.18-.11 7.8-3.78 7.8h-7.45c-.91 0-2.29-.92-2.87-1.72-.8-4.59-2.75-9.06-3.32-13.65"/><path fill="#C99582" d="M245.8 75.06v-1.27c.11-2.55.34-14.27.46-16.82.23-.88 1.03-5.26 1.26-6.14.46-1.91 1.03-2.87 4.59-2.87 6.54 0 10.2.88 10.2 5.18 0 6.22-1.26 12.43-1.26 18.73 0 2.63.46 5.34.46 7.97v2.47c-.8 1.75-5.39 1.75-8.14 1.75h-1.03c-2.64 0-3.9-.72-5.62-2.07-.12-1.04-.8-5.89-.92-6.93Z"/><path fill="#7BA4A1" d="M277.52 77.15c-.39-2.41-2.22-8.26 2.61-8.26 2.32 0 4.35 1.11 6.95 1.11 2.02 0 4.83-.37 4.44-2.32-.68-4.18-15.55-7.71-16.52-13.83-1.16-7.15 6.08-14.2 14.87-14.2 4.15 0 10.33.65 13.33 3.44.19.18.29 1.11.29 1.21.39 1.86-1.06 8.07-2.8 9.19-.19 0-1.16.09-1.26.09-2.03 0-3.58-.93-5.6-.93-1.83 0-2.61 1.58-2.32 2.97 0 .28.48 1.02.48 1.02l11.3 7.99c.29.83.87 1.21 1.16 1.86 1.06 2.04 1.84 4.27 2.12 6.4 1.26 7.42-6.47 9.93-14.68 9.93-1.35 0-12.55-.46-13.71-1.95-.1-.46-.58-3.15-.68-3.71"/><path fill="#C99582" d="M324.33 5.76c.34 0 2.06-.23 2.52-.34h.8c.23.11 1.03.34 1.15.34.11.46.46 1.95.46 2.29v.34c-.69 11.35-2.3 22.24-2.3 33.59.12 0 .57.34.69.23 1.03-.69 1.84-3.09 2.41-4.13 1.49-2.63 9.75-11.12 12.38-11.92.35 0 1.95-.12 2.29-.12.57 0 2.18.12 2.29.12 1.14.23 7.8 4.82 7.8 5.39 0 3.67-9.29 11.47-11.58 14.33-.8 1.26-3.55 3.56-4.36 4.93l18.92 15.25v1.61c-1.72 1.38-6.65 7.91-8.48 7.91 0 0-12.16-8.14-13.87-9.29-.11-.11-1.49-1.03-1.6-1.03-.8-.57-4.25-2.64-5.05-3.1l-.35 1.15c.12 4.36-.11 9.29-2.06 13.3-1.49 1.83-3.78 2.29-6.19 2.29-7.22 0-7.8-2.87-7.8-8.83V9.88c0-1.03 2.18-1.95 2.98-2.18 1.26-.34 7.68-1.6 8.94-1.95"/><path fill="#A06E83" d="M387.51 67.9c6.3 0 11.01-9.51 11.01-15.48 0-14.1-20.64-9.63-20.64 6.76 0 5.73 4.93 9.74 9.63 8.71m25.68-16.16c0 10.09-3.44 26.6-14.33 30.39-4.13 1.38-8.83 1.49-13.19 1.49-21.33-.11-27.4-19.95-20.64-36.34 5.16-12.5 16.17-20.87 29.58-20.87 12.38 0 18.58 14.68 18.58 25.34"/><path fill="#C99582" d="M422.47 25.48v-.69c.11-2.75.69-10.78.92-12.61.11-1.49 1.03-3.09.8-4.47 3.9-.8 8.83-1.49 12.73-1.49 1.03 0 2.75-.23 3.78.34.8 3.44.8 7 .8 10.44 0 6.88-2.29 14.1-2.87 21.09-1.26 13.99-2.64 33.25-4.93 47.01-1.14 1.83-3.9 1.95-5.85 1.95-1.03 0-4.24.23-4.81-.8-.57-1.15-.35-3.33-.35-4.47-.46-15.94-.23-37.38-.23-53.32v-2.98h.01Z"/><path fill="#7BA4A1" d="M463.63 43.82c-.69.92-1.95 3.21-1.95 3.21v.8c2.87 0 5.62-.46 8.49-.46h.92c.34 0 2.41.46 2.75.46.23 0 1.38-.23 1.49-.46v-.34c0-3.1-3.9-5.39-6.65-5.39-2.06 0-4.13.35-5.05 2.18Zm-17.77 12.04c0-15.14 9.86-28.43 26.72-28.43 9.05 0 12.95 4.93 17.2 11.7.92 1.49 1.61 3.32 1.61 5.16 0 2.18-.35 4.93-1.61 6.76-.12.12-.34.35-.46.46-.08.07-.16.15-.23.23-1.83 2.06-3.79 4.13-6.54 5.16-1.14.34-7.34 2.41-8.71 2.87-2.53.34-3.56.34-5.51.34-2.06 0-4.36-.34-6.54-.34h-.57c1.6 4.01 4.36 5.96 7.57 8.71 2.87 2.29 6.42 4.93 10.43 5.05.92 0 5.73.11 6.99.11 0 7.22-3.55 10.43-10.78 10.43-15.02 0-26.6-10.66-29.47-24.3 0-.58-.11-3.21-.11-3.9"/><path fill="#96BDD4" d="M495.96 74.32c0-13.19 0-34.63 12.04-43 4.36-2.98 9.17-5.27 14.33-5.27 14.1 0 18.46 12.27 18.46 25.68v6.31c0 .92-.46 8.71-.46 9.63-.11 2.52-.23 12.27-2.06 13.64h-1.38c-1.83 0-3.55-.57-5.27-.57-1.26 0-2.41.57-3.9.57h-1.49c0-.12-.34-.69-.34-.8 0-4.47 1.03-8.48 1.03-12.95v-.8c0-6.08 0-12.73-2.29-18 0 0-.34-.46-.46-.58-.46-.46-2.75-2.63-3.09-2.98-.23 0-.92-.11-1.15-.11-5.62 0-7.91 7.45-7.91 12.38 0 6.54 1.72 12.73 1.72 19.38 0 5.04-5.74 4.93-9.4 5.85-1.95.57-3.78 2.18-5.96 2.18-.69 0-1.15 0-1.61-.46-.92-3.9-.8-6.19-.8-10.09m-221.46-34.4c-3.56 1.03-3.68-.05-11.47 1.4-5.57 1.04-7.37 1.94-9.17.75-1.79-1.18-1.61-3.13-3.31-9.32-1.55-5.64-2.06-5.34-2.69-8.25-.42-1.94-2.48-11.5 2.99-18.07 4.08-4.9 10.25-5.63 13.07-5.96 1.44-.17 16.07-1.65 23.03 9.27.47.74 5.01 8.12 2.26 16.7-3.2 9.98-13.59 13.17-14.71 13.5m142.26 38.72c-5.31 0-22.37-9.4-35.92-22.92-9.9-9.88-18.8-23.12-18.68-27.77.03-1.1.46-2.09 1.21-2.77 2.04-1.83 4.4-.79 8.72 1.11 1.3.58 2.56 1.24 3.74 1.97l2.67 1.66-3.33 5.35-2.68-1.66c-.62-.38-1.26-.75-1.93-1.08 2.68 4.61 7.78 11.79 14.72 18.72 9.46 9.45 19.95 16.05 26.2 19.12-.49-.59-1.01-1.13-1.58-1.66l-2.33-2.12 4.23-4.66 2.33 2.12a22.185 22.185 0 0 1 4.6 5.84c1.57 2.9 2.82 5.18 1.16 7.3-.39.49-1.28 1.33-2.89 1.44h-.25"/><path fill="#C99582" d="m402.78 16.81.18.4v-.64l-.18.24Zm1.75 9.45c-.62 0-1.18-.36-1.44-.94l-1.71-3.87h-2.87c-.6 0-1.14-.34-1.41-.87s-.21-1.17.15-1.65l1.9-2.53-2.08-4.71c-.29-.65-.1-1.42.45-1.86a1.59 1.59 0 0 1 1.92-.04l3.02 2.21.81-1.08c.41-.54 1.12-.76 1.76-.55.64.22 1.08.82 1.08 1.5v2.81l5.37 3.94a1.569 1.569 0 0 1-.005 2.543 1.568 1.568 0 0 1-.925.297h-4.44v3.24c0 .74-.52 1.39-1.25 1.54-.11.02-.22.03-.33.03M262.63 20.14c-.49 1.93-2.46 3.1-4.38 2.6-1.93-.49-3.1-2.46-2.6-4.38.49-1.93 2.46-3.1 4.38-2.6 1.93.49 3.09 2.46 2.6 4.38Zm8.72 2.23c-.49 1.93-2.46 3.1-4.38 2.6a3.607 3.607 0 0 1-2.6-4.39 3.606 3.606 0 0 1 4.38-2.6c1.93.49 3.09 2.46 2.6 4.38m8.72 2.24a3.607 3.607 0 0 1-4.38 2.6 3.607 3.607 0 0 1-2.6-4.39 3.608 3.608 0 0 1 6.99 1.79"/></svg>