<svg viewBox="0 0 54 55" fill="none" xmlns="http://www.w3.org/2000/svg"><path d="M48.938 3.375c0-2.963-3.555-4.493-5.706-2.447l-4.641 4.42a29.518 29.518 0 0 1-14.966 7.657v1.719A31.178 31.178 0 0 0 39.751 6.58l4.64-4.419C45.469 1.14 47.24 1.9 47.24 3.386V47.25c0 1.487-1.772 2.247-2.848 1.224l-4.64-4.42a31.178 31.178 0 0 0-16.127-8.142v1.72a29.584 29.584 0 0 1 14.966 7.646l4.64 4.42c2.152 2.045 5.706.526 5.706-2.448V33.044A8.42 8.42 0 0 0 54 25.313a8.42 8.42 0 0 0-5.063-7.731V3.375ZM20.25 13.437c-.675.042-1.35.074-2.025.074H6.75A6.756 6.756 0 0 0 0 20.26v10.125a6.756 6.756 0 0 0 6.75 6.75v12.656a4.218 4.218 0 0 0 4.219 4.219h5.062a4.218 4.218 0 0 0 4.219-4.219V13.437Zm28.688 17.719V19.47a6.75 6.75 0 0 1 3.374 5.843c0 2.5-1.36 4.683-3.374 5.843Zm-30.376 5.97v12.656a2.525 2.525 0 0 1-2.53 2.53h-5.063a2.525 2.525 0 0 1-2.531-2.53V37.124h10.124Zm-.337-1.688H6.75a5.064 5.064 0 0 1-5.063-5.063V20.25a5.064 5.064 0 0 1 5.063-5.062h11.812v20.25h-.337Z" fill="currentColor"/></svg>