<svg xmlns="http://www.w3.org/2000/svg" width="152" height="152" fill="none" viewBox="0 0 152 152"><path fill="currentColor" fill-rule="evenodd" d="M71.689.075c-12.277 1.18-19.778 3.13-28.564 7.428-13.416 6.564-23.047 15.067-31.304 27.64-2.448 3.73-6.55 12.261-7.946 16.53-4.429 13.546-5.086 28.56-1.844 42.136 3.186 13.341 10.417 26.234 20.15 35.928 21.097 21.017 52.675 27.875 80.453 17.473 23.649-8.856 42.13-29.879 47.427-53.95 3.587-16.294 2.201-31.98-4.188-47.406-1.297-3.133-3.214-6.638-6.048-11.06C128.115 16.518 108.495 3.87 87.162.847 82.952.25 74.338-.18 71.689.075Zm15.179 10.28c9.742 1.578 17.346 4.648 26.874 10.848 4.796 3.121 13.739 11.854 16.548 16.16 6.152 9.432 9.292 17.018 11.316 27.334.984 5.016.983 17.59-.001 22.638-4.155 21.326-15.939 37.436-34.902 47.716-5.575 3.022-12.852 5.448-19.977 6.658-5.94 1.01-16.489.925-22.448-.18-15.367-2.851-30.127-11.316-39.159-22.461C14.73 106.248 9.51 91.85 9.51 76.003c0-13.441 3.843-26.096 11.323-37.29 10.902-16.31 28.54-26.813 48.674-28.98 3.988-.43 12.83-.113 17.36.621Zm-30.68 33.127c-1.9.94-3.102 2.43-3.701 4.587-.6 2.158-.602 52.908-.003 55.7.776 3.619 4.449 6.009 8.247 5.368 1.134-.192 8.015-4.183 23.159-13.43 11.85-7.237 22.047-13.553 22.66-14.036 3.428-2.704 3.477-8.455.094-11.006-2.302-1.737-43.674-26.92-45.071-27.436-1.99-.735-3.537-.663-5.386.253Zm41.408 32.321c-.38.333-35.094 21.748-35.513 21.909-.412.157-.51-4.056-.51-21.823V53.872l18.071 10.913c9.939 6.002 18.017 10.961 17.952 11.018Z" clip-rule="evenodd"/></svg>