<svg viewBox="0 0 44 44" fill="none" xmlns="http://www.w3.org/2000/svg"><path fill-rule="evenodd" clip-rule="evenodd" d="M39.875 22a17.875 17.875 0 1 1-35.75 0 17.875 17.875 0 0 1 35.75 0ZM44 22a22 22 0 1 1-44 0 22 22 0 0 1 44 0Zm-30.45-8.277c-.784 1.18-1.175 2.344-1.175 3.492 0 .56.248 1.078.742 1.556.495.479 1.101.717 1.818.715 1.22 0 2.047-.683 2.484-2.051.462-1.307 1.026-2.297 1.694-2.97.667-.671 1.706-1.006 3.118-1.006 1.206 0 2.192.332 2.956.998.763.667 1.144 1.485 1.144 2.453.004.485-.126.963-.374 1.38a5.5 5.5 0 0 1-.924 1.152 38.469 38.469 0 0 1-1.782 1.535c-.935.776-1.68 1.445-2.233 2.008a6.793 6.793 0 0 0-1.328 1.96c-.886 3.424 3.712 3.699 4.774 1.254a4.14 4.14 0 0 1 .586-.78c.264-.285.614-.615 1.05-.99a112.862 112.862 0 0 0 3.284-2.844 8.244 8.244 0 0 0 1.575-2.008 5.362 5.362 0 0 0 .666-2.706c0-1.305-.389-2.515-1.166-3.63-.776-1.116-1.875-1.998-3.3-2.645-1.424-.647-3.067-.971-4.928-.971-2.002 0-3.754.388-5.255 1.163-1.502.776-2.644 1.756-3.427 2.934Zm5.884 19.47a2.75 2.75 0 1 0 5.5 0 2.75 2.75 0 0 0-5.5 0Z" fill="currentColor"/></svg>