<svg viewBox="0 0 66 59" fill="none" xmlns="http://www.w3.org/2000/svg"><path d="M.917 0a.922.922 0 0 0 0 1.844h4.32c1.306 0 2.44.933 2.692 2.235l6.806 34.962a6.42 6.42 0 0 0 6.303 5.209H57.75a.922.922 0 0 0 0-1.844H21.026a4.596 4.596 0 0 1-4.503-3.722l-1.066-5.496h38.844a6.417 6.417 0 0 0 6.245-4.99l4.377-18.852c.676-2.893-1.513-5.659-4.457-5.659H9.716C9.282 1.545 7.415 0 5.237 0H.916Zm9.166 5.531h50.383c1.776 0 3.082 1.66 2.68 3.4L58.77 27.783a4.59 4.59 0 0 1-4.469 3.56H15.102L10.083 5.532ZM16.5 53.47c0-.978.386-1.916 1.074-2.608a3.657 3.657 0 0 1 2.593-1.08c.972 0 1.905.389 2.592 1.08a3.698 3.698 0 0 1 0 5.215 3.656 3.656 0 0 1-5.185 0A3.698 3.698 0 0 1 16.5 53.47Zm9.167 0a5.559 5.559 0 0 0-1.611-3.911 5.499 5.499 0 0 0-3.89-1.62 5.474 5.474 0 0 0-3.888 1.62 5.533 5.533 0 0 0-1.611 3.91 5.559 5.559 0 0 0 1.61 3.912 5.497 5.497 0 0 0 3.89 1.62 5.474 5.474 0 0 0 3.889-1.62 5.533 5.533 0 0 0 1.61-3.911Zm27.5-3.688c.972 0 1.905.389 2.592 1.08a3.698 3.698 0 0 1 0 5.215 3.656 3.656 0 0 1-5.185 0 3.698 3.698 0 0 1 0-5.215 3.657 3.657 0 0 1 2.593-1.08Zm0 9.219a5.484 5.484 0 0 0 3.889-1.62 5.547 5.547 0 0 0 1.61-3.911c0-1.467-.579-2.874-1.61-3.911a5.484 5.484 0 0 0-3.89-1.62 5.484 5.484 0 0 0-3.888 1.62 5.547 5.547 0 0 0-1.611 3.91c0 1.468.58 2.875 1.61 3.912a5.484 5.484 0 0 0 3.89 1.62Z" fill="currentColor"/></svg>