<svg xmlns="http://www.w3.org/2000/svg" width="70" height="70" fill="none" viewBox="0 0 70 70"><path fill="currentColor" fill-rule="evenodd" d="M48.88.464c-1.426.775-1.575 1.488-1.575 7.512 0 6.07.149 6.758 1.631 7.526.497.258 1.544.416 2.752.416h1.95l-.152.753c-.45 2.23-.999 5.897-.899 5.997.064.064 2.577-1.43 5.585-3.317l5.47-3.433h2.118c2.094 0 2.128-.012 3.178-1.063L70 13.79v-5.66c0-6.238-.142-6.91-1.632-7.68-1.175-.61-18.364-.597-19.487.013Zm18.33 2.364c.231.23.33 1.765.33 5.148 0 3.384-.099 4.918-.33 5.148-.195.197-1.156.33-2.392.333l-2.064.005-3.418 2.151c-1.88 1.184-3.438 2.137-3.464 2.118-.04-.03.142-1.145.578-3.525l.138-.753h-3.083c-2.033 0-3.195-.112-3.411-.329-.355-.354-.49-10.097-.146-10.442.1-.1 3.952-.182 8.559-.182 6.15 0 8.463.087 8.704.328Zm-37.48.888C18.098 5.778 8.636 13.841 4.947 24.836c-.432 1.288-.83 2.387-.886 2.442-.056.056-.521-.625-1.035-1.512l-.935-1.614-1.053.593c-.689.388-1 .73-.901.99.387 1.011 3.76 6.339 4.012 6.339.211 0 5.858-3.246 6.473-3.72.166-.13-.228-1.057-.714-1.68l-.473-.607-1.3.813c-1.485.93-1.55.808-.77-1.461C10.597 16.009 19.1 8.542 28.99 6.428c4.128-.883 10.275-.62 14.267.611.353.109.543-.122.796-.968.183-.61.256-1.187.162-1.28-.093-.094-1.128-.408-2.3-.698-2.825-.7-9.24-.899-12.183-.377ZM51.68 5.65V6.88h13.945V4.416H51.68V5.65Zm0 4.655v1.232h9.297V9.072H51.68v1.232Zm11.263-.069.084 1.164 1.3.084 1.298.083V9.072h-2.766l.084 1.164Zm-31.737 1.46c-5.204 1.401-9.595 5.946-10.693 11.068-.209.977-.29 3.536-.232 7.28l.09 5.772.753.987c.414.543 1.183 1.143 1.709 1.334.526.19.956.44.956.554 0 .115.255.892.567 1.726.687 1.84 2.344 4.001 3.815 4.976.598.396 1.087.803 1.087.903 0 .102-1.877.52-4.17.93-2.629.47-4.698 1.003-5.599 1.44-1.713.832-3.209 2.499-3.84 4.28l-.464 1.306-1.987-1.977c-1.093-1.087-1.987-2.162-1.987-2.389 0-.226 1.075-1.494 2.39-2.816l2.388-2.403-4.316-4.31-4.317-4.312L4.26 39.22C.82 42.75 0 44.237 0 46.96c0 3.216.075 3.318 9.54 12.86 4.754 4.794 9.197 9.045 9.874 9.448 1.102.656 1.502.732 3.828.732 3.21 0 3.606-.208 8.048-4.233l3.16-2.863-.872-.902-.873-.902H44.82c9.576 0 12.088-.071 11.989-.342-.07-.188-.769-2.28-1.554-4.648-1.249-3.767-1.58-4.476-2.644-5.66-1.648-1.837-2.834-2.333-7.63-3.194-2.255-.406-4.15-.781-4.211-.836-.06-.054.678-.835 1.64-1.734 1.742-1.625 1.76-1.635 3.44-1.647 1.403-.01 1.828-.13 2.524-.717 1.35-1.137 1.447-1.925 1.342-10.933-.094-8.06-.11-8.252-.812-10.19-1.772-4.887-5.943-8.592-10.84-9.63-1.956-.414-5.066-.357-6.857.125Zm7.957 2.842c2.159.818 4.527 2.636 5.747 4.41 1.57 2.287 2.165 4.288 2.329 7.84.139 3.026.133 3.063-.444 2.912-.39-.103-.584-.37-.584-.806 0-.558-.133-.653-.92-.653-2.97 0-6.344-1.365-8.689-3.515-.848-.777-1.652-1.414-1.787-1.414s-.844.608-1.575 1.352c-2.096 2.13-5.661 3.577-8.818 3.577-.784 0-.906.092-.906.685 0 .426-.155.684-.41.684-.337 0-.41-.484-.41-2.714 0-5.33 2.052-9.11 6.299-11.603 2.828-1.66 6.97-1.967 10.168-.755Zm23.09 7.178c-1.344 2.11-3.464 5.759-3.464 5.96 0 .233 1.924 1.484 2.045 1.33.035-.044.4-.665.812-1.381.412-.715.842-1.358.955-1.427.307-.191 1.07 3.263 1.379 6.247.667 6.436-1.28 13.846-5.06 19.261-.674.965-1.218 1.84-1.21 1.947.009.105.397.494.862.863l.846.671.799-.945c1.2-1.42 2.854-4.301 3.915-6.818 2.615-6.212 3.223-13.694 1.61-19.823-.23-.88-.383-1.706-.337-1.838.046-.131.667.127 1.381.572.714.446 1.348.81 1.409.81.114 0 1.258-1.866 1.258-2.051 0-.13-5.777-3.624-6.365-3.85-.273-.105-.578.068-.836.472Zm-25.516 6.371c1.608 1.08 3.992 2.022 6.286 2.485l.777.157-.098 4.027c-.077 3.19-.198 4.213-.579 4.918l-.48.89h-7.916v2.446l2.939.077 2.94.078-1.07.633c-1.562.925-4.092 1.507-5.599 1.29-1.658-.24-3.776-1.215-5.028-2.316-.554-.488-1.41-1.704-1.901-2.704-.857-1.742-.898-1.976-.99-5.578l-.093-3.76.777-.165c2.63-.556 3.424-.82 5.063-1.683 1.003-.527 2.037-1.195 2.298-1.485.261-.288.563-.525.67-.525.107 0 1.009.547 2.004 1.215Zm-13.23 5.973c-.008 1.565-.043 1.666-.41 1.18-.47-.621-.52-1.612-.119-2.362.45-.84.538-.642.529 1.182Zm23.66.188c-.095.386-.348.883-.564 1.103-.341.35-.391.172-.383-1.37l.01-1.77.554.668c.388.466.503.879.383 1.37Zm.138 4.554c0 1.011-.48 1.762-1.126 1.762-.485 0-.534-.116-.374-.89.297-1.437 1.5-2.136 1.5-.872Zm-35.422 6.413-.549.55-2.438-2.453c-2.423-2.438-2.434-2.457-1.921-3.024l.516-.571 2.47 2.474 2.47 2.474-.548.55Zm-4.714-.064c2.201 2.224 2.343 2.434 1.976 2.927-.504.679-.51 2.699-.01 3.658.213.407 2.397 2.724 4.854 5.15 5.17 5.103 5.62 5.332 8.102 4.138.572-.275.838-.09 3.069 2.134 2.356 2.35 2.425 2.454 1.971 2.966-1.298 1.464-4.242 1.95-6.213 1.024-1.516-.712-17.463-16.763-18.037-18.155a5.134 5.134 0 0 1 .003-3.984c.404-.968 1.402-2.255 1.75-2.255.09 0 1.23 1.079 2.535 2.397Zm29.4 3.556L35 50.278l-1.428-1.43-1.427-1.43 1.77.154c.972.085 2.26.033 2.862-.114.602-.148 1.154-.28 1.228-.296.073-.015-.573.68-1.436 1.544Zm.829 2.736c1.319-1.315 2.624-2.39 2.901-2.39 1.071 0 8.27 1.443 8.946 1.793 1.352.7 2.349 2.19 3.224 4.822.468 1.407.851 2.651.851 2.764 0 .113-5.196.205-11.547.205H30.226l-2.193-2.174-2.193-2.173-2.532 2.31c-1.393 1.27-2.751 2.31-3.018 2.31-.268 0-1.08-.603-1.805-1.34l-1.32-1.342.342-1.054c.59-1.83 1.326-3.055 2.246-3.746 1.14-.855 1.462-.95 6.224-1.837l3.964-.738 2.53 2.49L35 53.833l2.398-2.39Zm-7.26 11.91-.613.614L27 61.428l-2.526-2.537.683-.529.684-.529 2.456 2.452 2.456 2.453-.613.614Z" clip-rule="evenodd"/></svg>