<svg xmlns="http://www.w3.org/2000/svg" width="70" height="70" fill="none" viewBox="0 0 70 70"><path fill="currentColor" fill-rule="evenodd" d="M53.103.184c-.704.214-1.87 1.386-2.085 2.098-.099.326-.211 1.342-.25 2.258l-.071 1.665h-2.462v3.109H50.728v7.402h3.374V9.314h2.334l.083-.555c.046-.305.148-.877.227-1.27.269-1.34.325-1.284-1.25-1.284h-1.394v-1.1c0-.606.066-1.275.146-1.488.19-.504.947-.817 1.976-.817h.812V.168L56.518.07c-.712-.135-2.825-.064-3.415.114ZM35.981 3.967c-.803.368-1.753 1.487-1.957 2.305-.24.964-.204 6.223.048 6.936.357 1.011.948 1.703 1.824 2.137l.824.41 3.227-.026c1.887-.015 3.398-.091 3.639-.184.651-.253 1.49-1.005 1.875-1.684.339-.597.356-.758.401-3.8.031-2.076-.01-3.383-.12-3.775-.278-.993-.877-1.743-1.752-2.19l-.795-.408-3.31.004c-2.894.003-3.386.037-3.904.275Zm6.878 1.045c.31.073.729.288.93.478.764.72.841 1.05.9 3.831.059 2.864-.05 3.557-.668 4.3-.663.794-1.048.875-4.179.872-2.66-.002-2.863-.022-3.41-.335-.32-.183-.733-.558-.917-.834-.322-.482-.335-.617-.335-3.64 0-3.022.013-3.157.335-3.64.184-.275.596-.65.916-.833.545-.312.755-.333 3.223-.332 1.452 0 2.894.06 3.205.133Zm-6.726 1.1c-.172.265-.192.443-.08.74.12.318.24.39.659.39.74 0 1.087-.741.585-1.248a.746.746 0 0 0-1.164.117Zm2.74.706c-.71.206-1.732 1.3-1.94 2.076-.361 1.35.32 2.845 1.586 3.476 2.514 1.255 5.15-1.28 4.063-3.906-.315-.762-.616-1.063-1.461-1.464-.77-.365-1.434-.419-2.248-.182ZM40.87 8.22c.868.567.962 1.952.186 2.736-.76.766-1.576.748-2.445-.056-.423-.392-.516-.584-.523-1.083-.02-1.559 1.502-2.433 2.782-1.597Zm-12.593 3.162c-.319.17-.946.843-1.613 1.733-.6.8-1.13 1.487-1.177 1.528-.047.04-1.344 1.773-2.88 3.849a812.935 812.935 0 0 1-3.875 5.198c-.594.783-1.8 2.382-2.682 3.553a423.11 423.11 0 0 1-1.907 2.523c-.62.798-1.05 1.372-1.478 1.977-1.112 1.569-1.39 1.85-2.567 2.595-2.738 1.735-5.541 3.64-6.272 4.261C2.146 40.03.768 42.386.26 44.697c-1.52 6.907 3.818 13.506 10.893 13.467 2.24-.013 4.236-.682 6.563-2.2l1.092-.712.683 1.051c.376.579 1.458 2.25 2.405 3.716.947 1.466 1.98 3.045 2.296 3.51.316.463.574.872.574.908 0 .11 1.557 2.49 2.227 3.405.662.903 1.797 1.704 2.88 2.032.313.095 1.09.148 1.728.118 2.006-.094 3.663-1.21 4.574-3.082.353-.727.399-.99.399-2.301 0-1.643-.127-1.992-1.485-4.108l-1.283-1.999a949.367 949.367 0 0 0-4.484-6.931l-.405-.602.968-.242c.533-.133 1.53-.375 2.215-.538l3.08-.738c1.009-.242 2.263-.54 2.787-.662.525-.122 1.515-.356 2.2-.52a889.49 889.49 0 0 1 6.968-1.642c2.748-.634 2.887-.682 3.414-1.203 1.012-.998 1.007-2.418-.014-3.97a489.216 489.216 0 0 1-1.789-2.753c-.63-.977-1.44-2.221-1.8-2.764l-.654-.988.581-.715c.818-1.005 1.27-1.863 1.7-3.231.693-2.202.633-4.125-.196-6.229-1.113-2.828-3.408-4.866-6.36-5.647-1.048-.276-3.364-.3-4.343-.043-.363.095-.825.206-1.027.245-.389.076-.248.268-3.325-4.574-1.779-2.799-1.997-3.088-2.553-3.374-.716-.368-1.8-.368-2.492.002Zm3.187 4.778c1.02 1.568 2.197 3.383 2.615 4.034a823.6 823.6 0 0 0 1.622 2.517c.475.733.964 1.501 1.088 1.707.312.52 2.413 3.74 3.103 4.757.313.46.569.869.569.907 0 .055 1.174 1.896 2.05 3.214.59.89 2.442 3.76 3.23 5.006.525.83 1.5 2.355 2.167 3.388.958 1.484 1.174 1.914 1.027 2.047-.161.146-3.335.959-3.742.959-.08 0-.308-.25-.508-.555a573.159 573.159 0 0 1-3.574-5.515c-.334-.53-1.103-1.728-1.708-2.665-.605-.936-1.679-2.602-2.385-3.7L35.113 29.3a900.87 900.87 0 0 0-3.528-5.478c-.87-1.343-1.878-2.909-2.24-3.479-.361-.57-1.01-1.578-1.443-2.24-.432-.663-.82-1.296-.861-1.407-.042-.11.096-.402.306-.646s.584-.744.83-1.11c.407-.61 1.275-1.629 1.386-1.629.026 0 .881 1.283 1.901 2.85Zm28.257-1.382c-2.548.736-4.69 3.071-5.195 5.664-.246 1.258-.093 2.96.37 4.123l.384.966-.518 1.907c-.284 1.048-.487 1.937-.45 1.975.038.037.934-.163 1.992-.446l1.925-.514.907.376c1.74.72 4.12.599 5.89-.302 1.578-.803 3.187-2.688 3.679-4.311.561-1.85.381-4.072-.467-5.761-.494-.984-2.11-2.622-3.062-3.106-1.657-.84-3.758-1.06-5.455-.57Zm3.622 1.525c2.324.708 3.856 2.61 4.09 5.076.3 3.17-1.723 5.793-4.872 6.32-1.163.195-2.144.034-3.373-.554-.82-.391-.842-.393-1.556-.158-.772.255-1.183.303-1.183.138 0-.056.108-.49.24-.965l.24-.864-.447-.997c-.521-1.162-.649-2.034-.477-3.259.277-1.983 1.776-3.914 3.534-4.556 1.358-.496 2.579-.553 3.804-.18Zm-35.766 5.56c1.076 1.65 2.28 3.516 2.677 4.145.397.63 1.283 2.01 1.968 3.07 1.95 3.008 3.386 5.236 4.102 6.365.361.57 1.398 2.169 2.303 3.553s2.181 3.364 2.835 4.4l1.19 1.883-.546.142c-1.446.375-9.063 2.194-11.253 2.687-1.31.294-6.77 1.592-7.114 1.69-.151.043-.609-.559-1.467-1.93a400.34 400.34 0 0 0-2.756-4.322c-.83-1.28-1.978-3.062-2.551-3.958a1043.15 1043.15 0 0 0-2.206-3.428l-1.164-1.8 1.655-2.197a947.626 947.626 0 0 1 2.886-3.826c.246-.318 1.89-2.534 2.376-3.203.282-.389 1.405-1.883 2.494-3.32a418.365 418.365 0 0 0 2.186-2.9c.113-.159.256-.235.318-.17.061.065.992 1.468 2.067 3.119Zm31.04-2.964c-.892 1.033-.717 2.248.56 3.889 1.547 1.989 3.942 3.021 5.33 2.297.987-.515.96-1.409-.062-2.056-.776-.491-1.31-.447-1.57.13-.105.233-.287.366-.498.366-.4 0-1.41-.758-2.005-1.503l-.432-.541.329-.448c.387-.53.326-1.138-.192-1.905-.251-.373-.433-.486-.782-.487-.25 0-.554.115-.678.258Zm-17.406 2.407c1.185.225 2.536.992 3.515 1.995 2.456 2.517 2.708 6.227.615 9.077l-.358.487-.455-.71a953.2 953.2 0 0 0-2.095-3.226 480.374 480.374 0 0 1-2.949-4.59 344.66 344.66 0 0 0-1.572-2.472l-.262-.4.489-.142c.661-.192 2.11-.2 3.072-.019ZM61.95 32.606c-1.292.63-1.98 1.672-1.98 2.994v.684l-.624-.105c-.956-.16-2.944-.926-3.731-1.436-.388-.252-1.046-.788-1.462-1.191l-.755-.733-.271.419c-.55.85-.159 3.044.666 3.734.206.172.19.184-.13.102a14.548 14.548 0 0 1-.624-.176c-.522-.166-.191 1.23.523 2.206.176.241.584.602.907.802l.587.363-.514-.044c-.443-.038-.506-.003-.464.253.12.708.642 1.26 1.668 1.761l1.035.505-.43.225c-.946.494-2.263.84-3.198.84-.527 0-.958.056-.958.124 0 .313 2.324 1.206 3.727 1.433 5.586.902 10.169-2.689 10.596-8.303l.094-1.234.786-.818c1.088-1.134 1.052-1.268-.241-.89l-.367.107.393-.428c.338-.37.712-1.243.53-1.243-.033 0-.471.163-.973.361l-.913.361-.738-.463c-1.016-.638-2.114-.711-3.14-.21ZM13.816 38.96a682.082 682.082 0 0 1 3.502 5.44 358.285 358.285 0 0 0 2.812 4.356c.694 1.052 1.262 1.96 1.262 2.02 0 .059-.097.145-.216.19-.12.047-1.462.913-2.985 1.926-3.274 2.179-3.921 2.501-5.69 2.838-1.251.238-1.428.238-2.755.01-.78-.134-1.794-.412-2.254-.617-1.731-.773-3.605-2.607-4.374-4.282-1.478-3.217-.85-7.292 1.506-9.785.534-.565 1.676-1.444 3.054-2.35 1.21-.796 2.629-1.737 3.153-2.09.525-.355.971-.647.993-.65.022-.002.918 1.345 1.992 2.994ZM28.08 53.885a707.772 707.772 0 0 1 2.142 3.322c.363.57 1.24 1.935 1.948 3.035.709 1.099 1.476 2.29 1.706 2.649.696 1.083.73 1.972.12 3.195-.987 1.983-3.72 2.208-5.117.421-.291-.372-3.97-6.026-5.743-8.826a502.625 502.625 0 0 0-1.52-2.38c-.465-.722-.787-1.355-.716-1.406.07-.052.424-.284.786-.516.362-.233.909-.593 1.214-.802.5-.34 3.163-1.098 3.552-1.011.08.018.813 1.061 1.628 2.319Z" clip-rule="evenodd"/></svg>